<?xml version="1.0" encoding="UTF-8"?>
<svg id="Calque_1" xmlns="http://www.w3.org/2000/svg" viewBox="0 0 4932.9 802.51">
  <defs>
    <style>
      .cls-1, .cls-2 {
        fill: #fff;
      }

      .cls-2 {
        font-family: Unbounded-Bold, Unbounded;
        font-size: 624.08px;
        font-weight: 700;
      }

      .cls-3 {
        letter-spacing: 0em;
      }
    </style>
  </defs>
  <g id="Calque_1-2" data-name="Calque_1">
    <g id="Calque_1-2">
      <g>
        <path class="cls-1" d="M254.08,599.11c-5.7-5.77-12.96-5.67-18.56.2-19.39,20.49-38.68,40.98-58.07,61.47-5.39,5.77-12.34,6.07-18.25.7-5.5-4.97-10.27-10.54-15.24-16.02-10.58-11.54-21.47-22.78-32.25-34.12-17.73-18.7-35.47-37.3-53.3-56-2.18-2.29-4.25-4.77-4.25-7.86,0-29.05.1-58.09,0-87.14,0-3.38,1.45-5.87,3.73-8.26,12.44-13.23,24.89-26.36,37.23-39.59,15.45-16.41,30.8-32.83,46.25-49.24,14.41-15.42,29.35-30.34,43.14-46.25,6.53-7.56,15.97-7.16,22.5-.2,13.38,14.52,27.48,28.35,41.38,42.47,20.95,21.29,41.9,42.57,62.84,63.86,22.92,23.28,45.73,46.65,68.76,69.93,5.7,5.77,12.96,5.47,18.56-.4,12.96-13.43,26.03-26.86,38.99-40.29,12.65-13.13,25.41-26.26,38.06-39.39,12.24-12.73,24.47-25.46,36.81-38.1,21.16-21.88,42.31-43.67,63.47-65.45,2.07-2.19,3.53-4.58,3.53-7.76v-120.76c0-3.18-1.24-5.87-3.53-8.16-5.7-5.67-10.99-11.74-16.7-17.41-5.19-5.17-10.06-10.74-14.83-16.21-8.5-9.65-17.53-18.9-26.34-28.35-8.92-9.55-18.04-19.1-26.76-28.85-11.3-12.53-23.44-24.37-34.64-37.1-9.96-11.44-20.64-22.38-31.11-33.52-5.29-5.67-12.76-6.07-18.25-.6-12.55,12.43-25.1,24.97-37.64,37.5-18.56,18.6-37.23,37.1-55.79,55.8-6.12,6.07-6.01,11.74-.21,17.91,4.87,5.17,9.85,10.44,14.62,15.72,5.91,6.57,13.17,6.76,19.29.6,16.7-17.21,33.39-34.42,49.99-51.73,3.42-3.48,6.64-7.16,10.16-10.44,5.19-4.87,12.76-4.48,17.42.6,4.04,4.38,8.19,8.75,12.34,13.13,29.56,31.13,59.11,62.27,88.87,93.31,4.04,4.18,5.7,8.55,5.7,14.13-.21,23.87,0,47.75,0,71.72s-.31,5.07,0,7.56c.41,4.48-1.35,8.06-4.36,11.24-20.95,22.28-41.79,44.66-62.74,66.95-22.19,23.67-44.28,47.35-66.37,71.02-5.6,6.07-13.38,6.07-19.08,0l-93.33-99.97c-6.95-7.46-14.21-14.72-21.05-22.28-9.64-10.54-19.39-21.09-29.24-31.43-3.42-3.48-6.95-6.96-10.27-10.54-7.26-7.86-14.21-15.92-21.57-23.58-4.87-5.07-12.24-5.07-17.01,0-10.79,11.24-21.36,22.68-31.94,34.02-.62.5-1.24.9-1.76,1.49-16.7,17.71-33.29,35.41-49.99,53.12-13.38,14.13-26.76,28.25-40.13,42.38-19.91,21.09-39.72,42.08-59.63,63.17-2.49,2.69-3.53,5.77-3.53,9.35v116.18c0,3.88,1.35,7.06,4.04,9.85,16.9,18.5,33.91,37,50.71,55.61,17.21,18.9,34.33,37.9,51.54,56.8,16.28,17.91,32.67,35.71,48.95,53.52,5.81,6.37,13.27,6.27,19.39,0,12.65-12.73,24.16-26.46,37.23-38.89,8.09-7.66,14.93-16.31,22.92-24.07,7.88-7.66,14.93-16.02,22.71-23.77,4.67-4.68,9.54-9.25,14-14.22,4.56-5.17,4.46-10.54-.31-15.62-5.7-6.07-11.51-12.04-17.32-18l.31.3h-.1Z"/>
        <path class="cls-1" d="M1.24,295.22c0,2.98,1.24,5.67,3.32,7.86,13.27,14.52,26.65,29.05,40.03,43.57,5.5,5.97,12.76,5.97,18.46.2,5.7-5.87,11.2-11.84,16.9-17.71,6.12-6.37,6.12-12.24,0-18.5-7.16-7.26-14.21-14.72-21.57-21.88-3.32-3.18-4.56-6.76-4.56-11.14v-62.67c0-6.37.21-12.83,0-19.2,0-3.98,1.45-7.16,4.25-10.15,18.15-18.9,36.3-37.9,54.44-56.8,15.56-16.21,31.01-32.43,46.56-48.54,5.81-5.97,12.96-5.57,18.67.5,3.53,3.78,7.05,7.46,10.58,11.14,22.81,24.07,45.53,48.24,68.44,72.22,13.9,14.72,27.9,29.24,41.9,43.97.1.2.21.5.41.7,25.72,27.16,51.33,54.31,77.05,81.47,5.39,5.67,12.13,5.97,17.94.8,6.33-5.57,12.65-11.34,18.87-17.11,5.81-5.47,5.39-12.14.52-17.31-13.59-14.32-26.96-28.95-40.55-43.27-3.01-3.18-5.29-7.16-9.54-9.25-.83-1.49-1.76-2.98-3.01-4.28-13.69-14.52-27.17-29.15-40.86-43.67-9.96-10.54-19.91-20.99-29.76-31.53-7.05-7.46-14-15.02-20.95-22.58-29.87-32.23-59.94-64.26-90.02-96.39-6.95-7.46-13.9-7.56-20.84-.2-14.52,15.42-28.93,30.84-43.35,46.25-23.44,24.97-46.77,49.84-70.21,74.8-12.86,13.73-25.72,27.45-38.58,41.18-2.49,2.59-4.25,5.47-4.25,9.05,0,12.93,0,25.86.1,38.89,0,26.56-.1,53.12-.1,79.58h-.31Z"/>
        <path class="cls-1" d="M583.13,500.93v-59.19c0-2.88-1.14-5.37-3.11-7.56-13.07-14.22-26.13-28.35-39.2-42.57-5.19-5.67-12.86-5.97-18.25-.5-6.12,6.17-12.24,12.43-18.15,18.8-5.6,5.97-5.5,11.24.21,17.31,7.36,7.86,14.62,15.72,22.3,23.38,3.63,3.68,5.08,7.66,4.98,12.63v37.7h0c0,14.22-.21,28.45,0,42.57,0,5.47-1.76,9.85-5.7,13.93-14,14.52-27.79,29.15-41.59,43.77-19.39,20.49-38.68,40.98-58.07,61.47-5.81,6.17-13.27,6.27-19.08,0-8.19-8.65-16.28-17.31-24.47-25.96-31.94-33.92-63.57-68.04-95.72-101.76-3.53-3.68-7.16-7.26-10.47-11.14-4.04-4.68-7.88-9.65-13.17-13.33-2.8-3.98-6.12-7.46-9.54-10.94-4.77-4.87-9.64-9.55-14.1-14.62-10.58-12.24-22.4-23.28-32.87-35.51-4.87-5.67-12.24-5.67-18.04-.4-6.22,5.77-12.44,11.54-18.46,17.41-5.08,4.87-5.39,11.04-.52,16.11,9.13,9.65,18.56,19.2,27.79,28.75.62.8,1.24,1.59,1.97,2.39,15.56,16.31,31.21,32.53,46.77,48.84,21.36,22.28,42.73,44.56,64.09,66.85,21.26,22.18,42.52,44.36,63.78,66.55,10.99,11.44,21.88,22.98,32.98,34.32,5.6,5.77,12.76,5.97,18.25.5,9.13-9.15,18.15-18.4,27.17-27.65,10.06-10.35,19.5-21.19,30.07-31.04,8.4-7.76,15.87-16.31,24.06-24.17,16.9-16.31,33.19-33.32,49.67-50.13,5.39-5.47,10.79-10.84,16.18-16.31,2.28-2.29,4.46-4.58,6.74-6.86,2.18-2.19,3.42-4.77,3.42-7.76v-66.05h0l.1.2Z"/>
      </g>
    </g>
  </g>
  <text class="cls-2" transform="translate(795.44 603.11) scale(1.08 1)"><tspan x="0" y="0">LE NE</tspan><tspan class="cls-3" x="2228.26" y="0">X</tspan><tspan x="2768.41" y="0">US</tspan></text>
</svg>